<?xml version="1.0" standalone="no"?>
<!DOCTYPE svg PUBLIC "-//W3C//DTD SVG 20010904//EN"
 "http://www.w3.org/TR/2001/REC-SVG-20010904/DTD/svg10.dtd">
<svg version="1.0" xmlns="http://www.w3.org/2000/svg"
 width="16.000000pt" height="16.000000pt" viewBox="0 0 16.000000 16.000000"
 preserveAspectRatio="xMidYMid meet">
<metadata>
Created by potrace 1.11, written by Peter Selinger 2001-2013
</metadata>
<g transform="translate(0.000000,16.000000) scale(0.010667,-0.010667)"
fill="#000000" stroke="none">
<path d="M628 1434 c-2 -1 -15 -5 -29 -7 -14 -3 -57 -17 -95 -33 -217 -86
-386 -276 -455 -512 -37 -125 -47 -220 -48 -459 -2 -262 2 -281 65 -329 l37
-29 648 0 c638 0 648 0 675 21 67 49 69 57 72 268 3 185 2 193 -18 211 -35 32
-108 26 -156 -13 -101 -81 -333 -73 -503 18 -125 67 -196 168 -196 280 0 153
93 248 250 255 83 4 182 -15 229 -44 36 -22 96 -40 114 -34 21 8 13 67 -18
129 -59 119 -204 232 -346 269 -50 13 -216 20 -226 9z"/>
</g>
</svg>
