<svg id="Layer_1" xmlns="http://www.w3.org/2000/svg" width="120" height="29" viewBox="0 0 120 29"><style>.st0{fill:#766dcc}.st1{fill:#212121}</style><path id="path-1" class="st0" d="M8.8 27.2c1.8.8 3.7 1.3 5.8 1.3s4.1-.5 5.8-1.3c-1.9-1.3-3.9-2.9-5.8-4.6-1.9 1.7-3.9 3.3-5.8 4.6zm17.8-5.6c1.2-2.1 1.9-4.5 1.9-7.1 0-2.1-.5-4.1-1.3-5.8-2.1 3.1-5.1 6.6-8.5 10-.7.7-1.5 1.5-2.3 2.2-.3-.3-.6-.6-1-.9.8-.7 1.6-1.5 2.3-2.3 3.7-3.7 6.8-7.4 8.8-10.5 2.3-3.5 2.9-5.7 1.9-6.8-.1-.2-.6-.4-1.1-.4-1.2 0-3.2.9-5.6 2.5-2.1-1.2-4.5-2-7.1-2s-5 .7-7.1 2C5.1.9 3.1 0 1.9 0 1.3 0 .9.2.6.5c-2.4 2.4 5.1 11.7 10.7 17.3 6.6 6.6 13.2 11.2 16 11.2.6 0 1-.2 1.3-.5 1-1 .4-3.3-1.9-6.8l-.1-.1zm.7-20.3c.1 0 .3 0 .4.1.3.3.2 1.6-1.8 4.8-.8-1.1-1.8-2.2-3-3 2-1.2 3.5-1.9 4.4-1.9zm-24 4.9C1.6 3.5 1.1 1.8 1.5 1.4c.1-.1.3-.1.4-.1.9 0 2.4.7 4.4 1.9-1.1.9-2.1 1.9-3 3zm24.4 21.4c-.1.1-.3.1-.4.1-.9 0-2.4-.7-4.4-1.9 1.1-.8 2.2-1.8 3-3 2 3.2 2.1 4.5 1.8 4.8zM13 21.1c-.9-.8-1.8-1.6-2.6-2.5-3.3-3.3-6.5-7-8.5-10-.8 1.8-1.3 3.8-1.3 5.8 0 2.6.7 5 1.9 7.1l-.1.1C.1 25.1-.5 27.3.5 28.4c.3.3.8.5 1.3.5 2.2 0 6.7-2.8 11.7-7.2-.1-.1-.3-.3-.5-.6zM1.9 27.7c-.1 0-.3 0-.4-.1-.3-.3-.2-1.6 1.8-4.8.8 1.1 1.8 2.1 3 3-2 1.2-3.5 1.9-4.4 1.9z"/><path class="st1" d="M37.6 23.1v-18h3.6L51 16.7V5.1h4.2v18h-3.6l-9.8-11.7v11.7h-4.2zm24.7-12v6.6c0 .5.1 1.4.7 1.9.3.2.8.6 1.6.6.7 0 1.3-.2 1.6-.6.6-.5.6-1.3.6-1.9v-6.6h3.9v7c0 1.4-.1 2.7-1.3 3.9-1.4 1.3-3.4 1.6-4.8 1.6-1.5 0-3.5-.2-4.9-1.6-1.1-1.1-1.3-2.3-1.3-3.6v-7.3h3.9zm20.3 3.8c-.9-.8-1.9-.9-2.5-.9-1.2 0-1.9.6-2.2.9-.5.5-.9 1.3-.9 2.3 0 .9.3 1.6.8 2.2.6.6 1.5 1 2.3 1 .7 0 1.6-.2 2.5-.9V23c-1 .6-2 .7-3.1.7-2 0-3.6-.7-4.7-1.8-.9-.9-1.9-2.4-1.9-4.6 0-2.1.9-3.7 2-4.8 1.3-1.3 2.9-1.7 4.6-1.7 1.1 0 2 .2 3 .7v3.4zM89 3.5v19.7h-3.9V3.5H89zm15.2 14.3h-9c0 .6.2 1.5.7 2.1.6.6 1.4.8 2 .8.6 0 1.2-.1 1.6-.4.1 0 .5-.3.8-1l3.7.4c-.5 1.7-1.6 2.6-2.3 3-1.2.7-2.5.9-3.8.9-1.8 0-3.4-.3-4.8-1.7-1.1-1.1-1.8-2.6-1.8-4.6 0-1.7.6-3.5 1.8-4.8 1.5-1.5 3.3-1.7 4.6-1.7s3.3.2 4.8 1.8c1.4 1.5 1.7 3.4 1.7 4.9v.3zm-3.6-2.3c0-.1-.2-.9-.8-1.4-.4-.4-1.1-.7-1.8-.7-1 0-1.6.4-2 .8-.3.3-.6.8-.7 1.3h5.3zm17.6 6.1c-1.1 1.1-2.9 1.9-5.3 1.9-2.3 0-4.2-.9-5.3-1.9-1.2-1.2-1.8-2.9-1.8-4.5 0-1.5.6-3.3 1.8-4.5 1.1-1.1 2.9-1.9 5.3-1.9 2.3 0 4.2.9 5.3 1.9 1.2 1.2 1.8 2.9 1.8 4.5s-.6 3.3-1.8 4.5zm-7.5-6.8c-.6.6-.9 1.3-.9 2.3 0 1.1.4 1.8.9 2.3.5.5 1.2.9 2.2.9.9 0 1.6-.3 2.2-.9.6-.6.9-1.3.9-2.3s-.3-1.7-.9-2.3c-.6-.6-1.3-.9-2.2-.9-.9.1-1.6.4-2.2.9z"/></svg>