<svg version="1" xmlns="http://www.w3.org/2000/svg" width="21.333" height="21.333" viewBox="0 0 16.000000 16.000000"><path d="M6.699.704c-.021.01-.16.053-.31.074a8.005 8.005 0 0 0-1.013.352C3.061 2.048 1.26 4.074.523 6.592.128 7.925.02 8.938.01 11.488c-.022 2.795.021 2.997.693 3.51l.395.309H8.01c6.805 0 6.912 0 7.2-.224.715-.523.736-.608.768-2.86.032-1.973.022-2.058-.192-2.25-.373-.341-1.152-.277-1.664.139-1.077.864-3.552.779-5.365-.192-1.334-.715-2.091-1.792-2.091-2.987 0-1.632.992-2.645 2.667-2.72.885-.043 1.941.16 2.442.47.384.234 1.024.426 1.216.362.224-.085.14-.715-.192-1.376-.629-1.27-2.176-2.475-3.69-2.87C8.576.662 6.806.587 6.699.705z"/></svg>