<?xml version="1.0" encoding="utf-8"?>
<!-- Generator: Adobe Illustrator 19.2.1, SVG Export Plug-In . SVG Version: 6.00 Build 0)  -->
<!DOCTYPE svg PUBLIC "-//W3C//DTD SVG 1.1//EN" "http://www.w3.org/Graphics/SVG/1.1/DTD/svg11.dtd">
<svg version="1.1" id="Layer_1" xmlns="http://www.w3.org/2000/svg" xmlns:xlink="http://www.w3.org/1999/xlink" x="0px" y="0px"
	 width="120px" height="29px" viewBox="0 0 120 29" style="enable-background:new 0 0 120 29;" xml:space="preserve">
<style type="text/css">
	.st0{fill:#766DCC;}
	.st1{fill:#212121;}
</style>
<path id="path-1" class="st0" d="M8.8,27.2c1.8,0.8,3.7,1.3,5.8,1.3s4.1-0.5,5.8-1.3c-1.9-1.3-3.9-2.9-5.8-4.6
	C12.7,24.3,10.7,25.9,8.8,27.2z M26.6,21.6c1.2-2.1,1.9-4.5,1.9-7.1c0-2.1-0.5-4.1-1.3-5.8c-2.1,3.1-5.1,6.6-8.5,10
	c-0.7,0.7-1.5,1.5-2.3,2.2c-0.3-0.3-0.6-0.6-1-0.9c0.8-0.7,1.6-1.5,2.3-2.3c3.7-3.7,6.8-7.4,8.8-10.5c2.3-3.5,2.9-5.7,1.9-6.8
	C28.3,0.2,27.8,0,27.3,0c-1.2,0-3.2,0.9-5.6,2.5c-2.1-1.2-4.5-2-7.1-2s-5,0.7-7.1,2C5.1,0.9,3.1,0,1.9,0c-0.6,0-1,0.2-1.3,0.5
	c-2.4,2.4,5.1,11.7,10.7,17.3c6.6,6.6,13.2,11.2,16,11.2c0.6,0,1-0.2,1.3-0.5c1-1,0.4-3.3-1.9-6.8C26.7,21.7,26.7,21.7,26.6,21.6z
	 M27.3,1.3c0.1,0,0.3,0,0.4,0.1C28,1.7,27.9,3,25.9,6.2c-0.8-1.1-1.8-2.2-3-3C24.9,2,26.4,1.3,27.3,1.3z M3.3,6.2
	C1.6,3.5,1.1,1.8,1.5,1.4c0.1-0.1,0.3-0.1,0.4-0.1c0.9,0,2.4,0.7,4.4,1.9C5.2,4.1,4.2,5.1,3.3,6.2z M27.7,27.6
	c-0.1,0.1-0.3,0.1-0.4,0.1c-0.9,0-2.4-0.7-4.4-1.9c1.1-0.8,2.2-1.8,3-3C27.9,26,28,27.3,27.7,27.6z M13,21.1
	c-0.9-0.8-1.8-1.6-2.6-2.5c-3.3-3.3-6.5-7-8.5-10c-0.8,1.8-1.3,3.8-1.3,5.8c0,2.6,0.7,5,1.9,7.1l-0.1,0.1c-2.3,3.5-2.9,5.7-1.9,6.8
	c0.3,0.3,0.8,0.5,1.3,0.5c2.2,0,6.7-2.8,11.7-7.2C13.4,21.6,13.2,21.4,13,21.1z M1.9,27.7c-0.1,0-0.3,0-0.4-0.1
	c-0.3-0.3-0.2-1.6,1.8-4.8c0.8,1.1,1.8,2.1,3,3C4.3,27,2.8,27.7,1.9,27.7z"/>
<g>
	<path class="st1" d="M37.6,23.1v-18h3.6L51,16.7V5.1h4.2v18h-3.6l-9.8-11.7v11.7H37.6z"/>
	<path class="st1" d="M62.3,11.1v6.6c0,0.5,0.1,1.4,0.7,1.9c0.3,0.2,0.8,0.6,1.6,0.6c0.7,0,1.3-0.2,1.6-0.6c0.6-0.5,0.6-1.3,0.6-1.9
		v-6.6h3.9v7c0,1.4-0.1,2.7-1.3,3.9c-1.4,1.3-3.4,1.6-4.8,1.6c-1.5,0-3.5-0.2-4.9-1.6c-1.1-1.1-1.3-2.3-1.3-3.6v-7.3H62.3z"/>
	<path class="st1" d="M82.6,14.9c-0.9-0.8-1.9-0.9-2.5-0.9c-1.2,0-1.9,0.6-2.2,0.9c-0.5,0.5-0.9,1.3-0.9,2.3c0,0.9,0.3,1.6,0.8,2.2
		c0.6,0.6,1.5,1,2.3,1c0.7,0,1.6-0.2,2.5-0.9v3.5c-1,0.6-2,0.7-3.1,0.7c-2,0-3.6-0.7-4.7-1.8c-0.9-0.9-1.9-2.4-1.9-4.6
		c0-2.1,0.9-3.7,2-4.8c1.3-1.3,2.9-1.7,4.6-1.7c1.1,0,2,0.2,3,0.7V14.9z"/>
	<path class="st1" d="M89,3.5v19.7h-3.9V3.5H89z"/>
	<path class="st1" d="M104.2,17.8h-9c0,0.6,0.2,1.5,0.7,2.1c0.6,0.6,1.4,0.8,2,0.8c0.6,0,1.2-0.1,1.6-0.4c0.1,0,0.5-0.3,0.8-1
		l3.7,0.4c-0.5,1.7-1.6,2.6-2.3,3c-1.2,0.7-2.5,0.9-3.8,0.9c-1.8,0-3.4-0.3-4.8-1.7c-1.1-1.1-1.8-2.6-1.8-4.6c0-1.7,0.6-3.5,1.8-4.8
		c1.5-1.5,3.3-1.7,4.6-1.7s3.3,0.2,4.8,1.8c1.4,1.5,1.7,3.4,1.7,4.9V17.8z M100.6,15.5c0-0.1-0.2-0.9-0.8-1.4
		c-0.4-0.4-1.1-0.7-1.8-0.7c-1,0-1.6,0.4-2,0.8c-0.3,0.3-0.6,0.8-0.7,1.3H100.6z"/>
	<path class="st1" d="M118.2,21.6c-1.1,1.1-2.9,1.9-5.3,1.9c-2.3,0-4.2-0.9-5.3-1.9c-1.2-1.2-1.8-2.9-1.8-4.5c0-1.5,0.6-3.3,1.8-4.5
		c1.1-1.1,2.9-1.9,5.3-1.9c2.3,0,4.2,0.9,5.3,1.9c1.2,1.2,1.8,2.9,1.8,4.5C120,18.7,119.4,20.4,118.2,21.6z M110.7,14.8
		c-0.6,0.6-0.9,1.3-0.9,2.3c0,1.1,0.4,1.8,0.9,2.3c0.5,0.5,1.2,0.9,2.2,0.9c0.9,0,1.6-0.3,2.2-0.9c0.6-0.6,0.9-1.3,0.9-2.3
		s-0.3-1.7-0.9-2.3c-0.6-0.6-1.3-0.9-2.2-0.9C112,14,111.3,14.3,110.7,14.8z"/>
</g>
</svg>
